<?xml version="1.0" encoding="UTF-8" standalone="no"?>
<svg
   width="15.501196"
   height="12.701172"
   viewBox="0 0 15.501196 12.701172"
   fill="none"
   version="1.1"
   id="svg837"
   xmlns="http://www.w3.org/2000/svg"
   xmlns:svg="http://www.w3.org/2000/svg">
  <defs
     id="defs841" />
  <path
     style="color:#000000;fill:#000000;stroke-linecap:round;stroke-linejoin:round"
     d="M 2.1509891,0 C 0.97189936,0 5.9846044e-4,0.97130085 5.9846044e-4,2.1503906 v 8.4003904 c 0,1.17909 0.97130089956,2.150391 2.15039063956,2.150391 H 13.350207 c 1.17909,0 2.150391,-0.971301 2.150391,-2.150391 V 2.1503906 C 15.500598,0.97130085 14.529297,0 13.350207,0 Z m 0,1.5 H 13.350207 c 0.360909,0 0.650391,0.2894819 0.650391,0.6503907 v 8.4003903 c 0,0.360909 -0.289482,0.650391 -0.650391,0.650391 H 2.1509891 c -0.3609087,0 -0.6503906,-0.289482 -0.6503906,-0.650391 V 2.1503906 C 1.5005985,1.7894819 1.7900804,1.4999999 2.1509891,1.5 Z"
     id="path833" />
  <path
     style="color:#000000;fill:#000000;stroke-linecap:round;stroke-linejoin:round;-inkscape-stroke:none"
     d="M 1.180286,1.5371093 A 0.75,0.75 0 0 0 0.13536409,1.7207031 0.75,0.75 0 0 0 0.32091096,2.7656251 L 7.320911,7.6660156 a 0.750075,0.750075 0 0 0 0.859375,0 l 7,-4.9003905 A 0.75,0.75 0 0 0 15.365832,1.7207031 0.75,0.75 0 0 0 14.320911,1.5371093 L 7.7505985,6.1347656 Z"
     id="path835" />
</svg>
