<?xml version="1.0" encoding="UTF-8" standalone="no"?>
<svg
   width="14"
   height="15"
   viewBox="0 0 14 15"
   fill="none"
   version="1.1"
   id="svg6"
   sodipodi:docname="Group (5).svg"
   inkscape:export-filename="Group (5).svg"
   inkscape:export-xdpi="96"
   inkscape:export-ydpi="96"
   inkscape:version="1.2 (dc2aedaf03, 2022-05-15)"
   xmlns:inkscape="http://www.inkscape.org/namespaces/inkscape"
   xmlns:sodipodi="http://sodipodi.sourceforge.net/DTD/sodipodi-0.dtd"
   xmlns="http://www.w3.org/2000/svg"
   xmlns:svg="http://www.w3.org/2000/svg">
  <defs
     id="defs10" />
  <sodipodi:namedview
     id="namedview8"
     pagecolor="#ffffff"
     bordercolor="#000000"
     borderopacity="0.25"
     inkscape:showpageshadow="2"
     inkscape:pageopacity="0.0"
     inkscape:pagecheckerboard="0"
     inkscape:deskcolor="#d1d1d1"
     showgrid="false"
     inkscape:zoom="15.733333"
     inkscape:cx="4.8622881"
     inkscape:cy="7.5"
     inkscape:window-width="1680"
     inkscape:window-height="987"
     inkscape:window-x="-8"
     inkscape:window-y="-8"
     inkscape:window-maximized="1"
     inkscape:current-layer="svg6" />
  <path
     style="color:#000000;fill:#000000;-inkscape-stroke:none"
     d="m 4,0.97070313 c -2.0621803,0 -3.75,1.68781967 -3.75,3.74999997 v 5.9999999 c 0,2.062143 1.6878046,3.75 3.75,3.75 h 6 c 2.062233,0 3.75,-1.687872 3.75,-3.75 V 4.7207031 C 13.75,2.6585379 12.062218,0.97070313 10,0.97070313 Z M 4,2.4707031 h 6 c 1.251579,0 2.25,0.9984686 2.25,2.25 v 5.9999999 c 0,1.251469 -0.998437,2.25 -2.25,2.25 H 4 c -1.2515013,0 -2.25,-0.998546 -2.25,-2.25 V 4.7207031 c 0,-1.2515163 0.9984837,-2.25 2.25,-2.25 z"
     id="path2" />
  <path
     style="color:#000000;fill:#000000;stroke-linecap:round;stroke-linejoin:round;-inkscape-stroke:none"
     d="M 7.4882812,4.5800781 C 6.8329913,4.4829145 6.1622449,4.5933222 5.5742187,4.8984375 4.9861998,5.2035491 4.5107292,5.6875566 4.2128906,6.2792969 3.9150482,6.8710317 3.8107679,7.5412545 3.9160156,8.1953125 c 0.105247,0.6540538 0.4143642,1.2581273 0.8828125,1.7265625 0.4684335,0.468433 1.0724861,0.777599 1.7265625,0.882813 0.6540596,0.105247 1.3242976,0.0029 1.9160157,-0.294922 C 9.0331385,10.211924 9.5171521,9.7345071 9.8222656,9.1464844 10.127379,8.5584623 10.239755,7.8877246 10.142578,7.2324219 10.043459,6.5639977 9.7317187,5.9465624 9.2539063,5.46875 8.7760918,4.9909355 8.1567152,4.6791963 7.4882812,4.5800781 Z M 7.2675781,6.0625 C 7.6178632,6.1144417 7.9429546,6.2788921 8.1933594,6.5292969 8.4437462,6.7796837 8.6062619,7.1028502 8.6582031,7.453125 8.7091263,7.7965213 8.6501207,8.1469411 8.4902344,8.4550781 8.3303484,8.7632145 8.077665,9.0138435 7.7675781,9.1699219 7.4574771,9.3259799 7.1064113,9.3793706 6.7636719,9.3242188 6.4209693,9.2690923 6.1048408,9.1067939 5.859375,8.8613281 5.613904,8.615864 5.4516372,8.2997764 5.3964844,7.9570312 5.3413322,7.6142903 5.3966573,7.2632092 5.5527344,6.953125 5.7088153,6.6430262 5.9574849,6.3903567 6.265625,6.2304687 6.573758,6.0705845 6.9241891,6.0115837 7.2675781,6.0625 Z"
     id="path4" />
</svg>
