<?xml version="1.0" encoding="UTF-8" standalone="no"?>
<svg
   width="33"
   height="33"
   viewBox="0 0 33 33"
   fill="none"
   version="1.1"
   id="svg1783"
   sodipodi:docname="Size.svg"
   inkscape:export-filename="Size.svg"
   inkscape:export-xdpi="96"
   inkscape:export-ydpi="96"
   inkscape:version="1.2 (dc2aedaf03, 2022-05-15)"
   xmlns:inkscape="http://www.inkscape.org/namespaces/inkscape"
   xmlns:sodipodi="http://sodipodi.sourceforge.net/DTD/sodipodi-0.dtd"
   xmlns="http://www.w3.org/2000/svg"
   xmlns:svg="http://www.w3.org/2000/svg">
  <defs
     id="defs1787" />
  <sodipodi:namedview
     id="namedview1785"
     pagecolor="#ffffff"
     bordercolor="#000000"
     borderopacity="0.25"
     inkscape:showpageshadow="2"
     inkscape:pageopacity="0.0"
     inkscape:pagecheckerboard="0"
     inkscape:deskcolor="#d1d1d1"
     showgrid="false"
     inkscape:zoom="7.1515152"
     inkscape:cx="11.815678"
     inkscape:cy="16.5"
     inkscape:window-width="1680"
     inkscape:window-height="987"
     inkscape:window-x="-8"
     inkscape:window-y="-8"
     inkscape:window-maximized="1"
     inkscape:current-layer="svg1783" />
  <g
     id="path1763"
     style="fill:#000000">
    <path
       style="color:#000000;clip-rule:evenodd;fill:#000000;fill-rule:evenodd;stroke-width:0.5;stroke-linecap:round;stroke-linejoin:round"
       d="M 3.25031,1.38187 C 3.25031,1.17097 3.42854,1 3.6484,1 h 28.6631 c 0.2199,0 0.3981,0.17097 0.3981,0.38187 V 29.0039 c 0,0.2109 -0.1782,0.3819 -0.3981,0.3819 -0.2199,0 -0.3981,-0.171 -0.3981,-0.3819 V 1.76374 H 3.6484 c -0.21986,0 -0.39809,-0.17097 -0.39809,-0.38187 z"
       id="path1908" />
    <path
       style="color:#000000;clip-rule:evenodd;fill:#000000;fill-rule:evenodd;stroke-linecap:round;stroke-linejoin:round"
       d="M 3.6484375,0.75 C 3.2989726,0.75 3,1.0310641 3,1.3828125 3,1.7345609 3.2989726,2.0136719 3.6484375,2.0136719 H 31.664062 V 29.003906 c 0,0.351725 0.296981,0.632813 0.646485,0.632813 0.349504,0 0.648437,-0.281088 0.648437,-0.632813 V 1.3828125 C 32.958984,1.0310878 32.660028,0.75 32.310547,0.75 Z m 0,0.5 H 32.310547 c 0.09032,0 0.148437,0.062738 0.148437,0.1328125 V 29.003906 c 0,0.07007 -0.05814,0.132813 -0.148437,0.132813 -0.0903,0 -0.146484,-0.06274 -0.146485,-0.132813 V 1.7636719 a 0.250025,0.250025 0 0 0 -0.25,-0.25 H 3.6484375 C 3.5581828,1.5136719 3.5,1.4528637 3.5,1.3828125 3.5,1.3127613 3.5581828,1.25 3.6484375,1.25 Z"
       id="path1910" />
  </g>
  <g
     id="path1765"
     style="fill:#000000">
    <path
       style="color:#000000;fill:#000000;stroke-width:0.25"
       d="M 1.12731,7.30443 2.75318,5.67856 v 23.75874 0.125 h 0.125 0.78992 0.125 v -0.125 l -1e-5,-23.75874 1.62588,1.62587 c 0.20305,0.20306 0.53227,0.20306 0.73533,0 0.20305,-0.20305 0.20305,-0.53227 0,-0.73533 L 3.6408,4.0556 C 3.43775,3.85255 3.10853,3.85255 2.90547,4.0556 L 0.391976,6.5691 c -0.203056,0.20306 -0.203056,0.53228 0,0.73533 0.203057,0.20306 0.532275,0.20306 0.735334,0 z"
       id="path1914" />
    <path
       style="color:#000000;fill:#000000"
       d="M 2.8164063,3.9667969 0.30273438,6.4804687 c -0.25082312,0.2508281 -0.25082665,0.6612902 0,0.9121094 0.25082465,0.2508284 0.66128295,0.2508277 0.91210932,0 L 2.6289063,5.9804687 V 29.4375 v 0.25 h 0.25 0.7890625 0.25 v -0.25 -23.4570313 l 1.4121093,1.4121094 c 0.2508188,0.2508311 0.6612818,0.2508276 0.9121094,0 0.2508199,-0.2508199 0.2508164,-0.6612806 0,-0.9121094 L 3.7285156,3.9667969 c -0.2508199,-0.25082 -0.6612806,-0.2508164 -0.9121093,0 z m 0.1777343,0.1777343 c 0.1552909,-0.1552831 0.4033141,-0.1552796 0.5585938,0 l 2.5136718,2.5136719 c 0.1552832,0.1552909 0.1552797,0.4033141 0,0.5585938 -0.155292,0.155292 -0.4033129,0.1552885 -0.5585937,0 L 3.6679688,5.3769531 V 29.4375 H 2.8789063 V 5.3769531 L 1.0390625,7.2167969 c -0.15529118,0.1552919 -0.40330481,0.1552912 -0.55859375,0 -0.15528495,-0.1552804 -0.15528848,-0.4033022 0,-0.5585938 z"
       id="path1916" />
  </g>
  <g
     id="path1767"
     style="fill:#000000">
    <path
       style="color:#000000;fill:#000000;stroke-width:0.25"
       d="m 25.1262,27.2909 1.6341,1.6256 H 2.8772 2.7522 v 0.125 0.7899 0.125 h 0.125 23.8831 l -1.6341,1.6257 c -0.2042,0.2031 -0.2042,0.5326 0,0.7358 0.2038,0.2027 0.534,0.2027 0.7378,0 l 2.5266,-2.5135 c 0.2041,-0.2031 0.2041,-0.5327 0,-0.7358 L 25.864,26.5551 c -0.2038,-0.2028 -0.534,-0.2028 -0.7378,0 -0.2042,0.2031 -0.2042,0.5327 0,0.7358 z"
       id="path1920" />
    <path
       style="color:#000000;fill:#000000"
       d="m 25.037109,26.466797 c -0.252141,0.250783 -0.252141,0.661326 0,0.912109 l 1.417969,1.41211 h -23.5781249 -0.25 v 0.25 0.791015 0.25 h 0.25 23.5781249 l -1.417969,1.41211 c -0.252127,0.250768 -0.252091,0.661252 0,0.912109 0.251664,0.250306 0.664352,0.250306 0.916016,0 l 2.525391,-2.513672 c 0.25203,-0.250795 0.25203,-0.661314 0,-0.912109 l -2.525391,-2.513672 c -0.251652,-0.250418 -0.664363,-0.250418 -0.916016,0 z m 0.177735,0.177734 c 0.155947,-0.155182 0.4046,-0.155182 0.560547,0 l 2.527343,2.511719 c 0.15617,0.155404 0.15617,0.403189 0,0.558594 l -2.527343,2.513672 c -0.155936,0.155093 -0.404612,0.155093 -0.560547,0 -0.156308,-0.155543 -0.156273,-0.403163 0,-0.558594 L 27.0625,29.832031 H 2.8769531 V 29.041016 H 27.0625 l -1.847656,-1.837891 c -0.156258,-0.155416 -0.156258,-0.403177 0,-0.558594 z"
       id="path1922" />
  </g>
  <g
     id="path1769"
     style="fill:#000000">
    <path
       style="color:#000000;clip-rule:evenodd;fill:#000000;fill-rule:evenodd;stroke-width:0.5;stroke-linecap:round;stroke-linejoin:round"
       d="m 14.1624,1.11568 c 0.1543,0.15424 0.1543,0.40431 0,0.55855 l -4.73945,4.7395 c -0.15424,0.15424 -0.40431,0.15424 -0.55855,0 -0.15424,-0.15424 -0.15424,-0.40432 0,-0.55856 l 4.7395,-4.73949 c 0.1542,-0.15424 0.4043,-0.15424 0.5585,0 z"
       id="path1926" />
    <path
       style="color:#000000;clip-rule:evenodd;fill:#000000;fill-rule:evenodd;stroke-linecap:round;stroke-linejoin:round"
       d="M 13.427734,0.93945313 8.6875,5.6777344 c -0.2497799,0.2497798 -0.2497799,0.6623295 0,0.9121093 0.249776,0.2497761 0.6623333,0.2497761 0.9121094,0 L 14.339844,1.8515625 c 0.249854,-0.2497574 0.249854,-0.6623519 0,-0.91210937 -0.24976,-0.24982467 -0.66235,-0.24982467 -0.91211,0 z M 13.78125,1.2929687 c 0.05864,-0.058655 0.146438,-0.058655 0.205078,0 0.05875,0.058722 0.05875,0.1463559 0,0.2050782 L 9.2460938,6.2363281 c -0.058704,0.058704 -0.1463745,0.058704 -0.2050782,0 -0.0587,-0.0587 -0.0587,-0.1463783 0,-0.2050781 z"
       id="path1928" />
  </g>
  <g
     id="path1771"
     style="fill:#000000">
    <path
       style="color:#000000;clip-rule:evenodd;fill:#000000;fill-rule:evenodd;stroke-width:0.5;stroke-linecap:round;stroke-linejoin:round"
       d="m 32.4623,19.9423 c 0.1542,0.1543 0.1542,0.4044 0,0.5586 l -4.3446,4.3445 c -0.1542,0.1543 -0.4043,0.1543 -0.5585,0 -0.1543,-0.1542 -0.1543,-0.4043 0,-0.5585 l 4.3445,-4.3446 c 0.1542,-0.1542 0.4043,-0.1542 0.5586,0 z"
       id="path1932" />
    <path
       style="color:#000000;clip-rule:evenodd;fill:#000000;fill-rule:evenodd;stroke-linecap:round;stroke-linejoin:round"
       d="m 31.726562,19.765625 -4.34375,4.34375 c -0.249903,0.249741 -0.249903,0.662368 0,0.912109 0.249742,0.249904 0.662369,0.249904 0.91211,0 l 4.34375,-4.34375 c 0.249772,-0.249772 0.249679,-0.662268 0,-0.912109 -0.249841,-0.249679 -0.662337,-0.249772 -0.91211,0 z m 0.353516,0.353516 c 0.05863,-0.05863 0.14632,-0.05872 0.205078,0 0.05872,0.05876 0.05863,0.14645 0,0.205078 l -4.34375,4.34375 c -0.05866,0.0587 -0.146419,0.0587 -0.205078,0 -0.0587,-0.05866 -0.0587,-0.14642 0,-0.205078 z"
       id="path1934" />
  </g>
  <g
     id="path1773"
     style="fill:#000000">
    <path
       style="color:#000000;clip-rule:evenodd;fill:#000000;fill-rule:evenodd;stroke-width:0.5;stroke-linecap:round;stroke-linejoin:round"
       d="m 20.0851,1.11391 c 0.1552,0.15325 0.1568,0.40332 0.0035,0.55854 L 9.81975,12.073 C 9.66649,12.2282 9.41642,12.2298 9.2612,12.0766 9.10598,11.9233 9.10439,11.6732 9.25765,11.518 L 19.5265,1.11746 c 0.1533,-0.155215 0.4034,-0.156808 0.5586,-0.00355 z"
       id="path1938" />
    <path
       style="color:#000000;clip-rule:evenodd;fill:#000000;fill-rule:evenodd;stroke-linecap:round;stroke-linejoin:round"
       d="M 20.261719,0.93554688 C 20.010358,0.68733101 19.595883,0.69007894 19.347656,0.94140625 L 9.0800781,11.341797 c -0.2482173,0.251359 -0.2454756,0.663883 0.00586,0.912109 0.2513837,0.248113 0.6639202,0.245472 0.9121094,-0.0059 L 20.265625,1.8476562 c 0.248244,-0.2513531 0.247434,-0.6639271 -0.0039,-0.91210932 z M 19.910156,1.2910156 c 0.05906,0.058318 0.05836,0.1459916 0,0.2050781 L 9.6425781,11.896484 c -0.058331,0.05907 -0.1460222,0.06024 -0.2050781,0.002 -0.059105,-0.05837 -0.060256,-0.146038 -0.00195,-0.205079 L 19.705078,1.2929687 c 0.05837,-0.059102 0.14604,-0.060253 0.205078,-0.00195 z"
       id="path1940" />
  </g>
  <g
     id="path1775"
     style="fill:#000000">
    <path
       style="color:#000000;clip-rule:evenodd;fill:#000000;fill-rule:evenodd;stroke-width:0.5;stroke-linecap:round;stroke-linejoin:round"
       d="m 32.5938,13.3591 c 0.1543,0.1543 0.1543,0.4044 0,0.5586 L 22.5882,23.9233 c -0.1542,0.1542 -0.4043,0.1542 -0.5585,0 -0.1543,-0.1542 -0.1543,-0.4043 0,-0.5586 L 32.0353,13.3591 c 0.1542,-0.1542 0.4043,-0.1542 0.5585,0 z"
       id="path1944" />
    <path
       style="color:#000000;clip-rule:evenodd;fill:#000000;fill-rule:evenodd;stroke-linecap:round;stroke-linejoin:round"
       d="M 31.859375,13.181641 21.853516,23.1875 c -0.249811,0.24981 -0.249904,0.662368 0,0.912109 0.249772,0.249773 0.662337,0.249773 0.912109,0 L 32.771484,14.09375 c 0.249904,-0.249741 0.249811,-0.662299 0,-0.912109 -0.249772,-0.249773 -0.662337,-0.249773 -0.912109,0 z m 0.353516,0.353515 c 0.05863,-0.05863 0.14645,-0.05863 0.205078,0 0.05879,0.05879 0.0587,0.14642 0,0.205078 l -10.00586,10.00586 c -0.05863,0.05863 -0.14645,0.05863 -0.205078,0 -0.0587,-0.05866 -0.05879,-0.146289 0,-0.205078 z"
       id="path1946" />
  </g>
  <g
     id="path1777"
     style="fill:#000000">
    <path
       style="color:#000000;clip-rule:evenodd;fill:#000000;fill-rule:evenodd;stroke-width:0.5;stroke-linecap:round;stroke-linejoin:round"
       d="m 26.4084,1.24959 c 0.153,0.15548 0.151,0.40555 -0.0045,0.55854 L 9.94736,18.0014 C 9.79188,18.1544 9.54182,18.1524 9.38883,17.9969 9.23584,17.8414 9.23785,17.5913 9.39333,17.4384 L 25.8499,1.24509 c 0.1555,-0.15299 0.4055,-0.15097 0.5585,0.0045 z"
       id="path1950" />
    <path
       style="color:#000000;clip-rule:evenodd;fill:#000000;fill-rule:evenodd;stroke-linecap:round;stroke-linejoin:round"
       d="M 25.673828,1.0664062 9.21875,17.259766 c -0.2518862,0.247706 -0.2555569,0.6603 -0.00781,0.912109 0.2477517,0.251816 0.6603363,0.25557 0.9121095,0.0078 L 26.580078,1.9863281 c 0.25182,-0.2477555 0.25362,-0.6603324 0.0059,-0.9121094 C 26.3382,0.8224816 25.925603,0.81869566 25.673828,1.0664062 Z m 0.351563,0.3574219 c 0.05923,-0.058269 0.146816,-0.057249 0.205078,0.00195 0.05824,0.059183 0.05723,0.146854 -0.002,0.2050782 L 9.7714844,17.822266 c -0.059187,0.05824 -0.1468502,0.05918 -0.2050781,0 -0.058235,-0.05919 -0.05712,-0.146985 0.00195,-0.205079 z"
       id="path1952" />
  </g>
  <g
     id="path1779"
     style="fill:#000000">
    <path
       style="color:#000000;clip-rule:evenodd;fill:#000000;fill-rule:evenodd;stroke-width:0.5;stroke-linecap:round;stroke-linejoin:round"
       d="m 32.5939,7.17177 c 0.1543,0.15424 0.1543,0.40432 0,0.55856 L 16.0057,24.3185 c -0.1542,0.1543 -0.4043,0.1543 -0.5585,0 -0.1543,-0.1542 -0.1543,-0.4043 0,-0.5585 L 32.0354,7.17177 c 0.1542,-0.15424 0.4043,-0.15424 0.5585,0 z"
       id="path1956" />
    <path
       style="color:#000000;clip-rule:evenodd;fill:#000000;fill-rule:evenodd;stroke-linecap:round;stroke-linejoin:round"
       d="M 31.859375,6.9941406 15.269531,23.583984 c -0.249903,0.249742 -0.249903,0.662368 0,0.91211 0.249742,0.249903 0.662368,0.249903 0.91211,0 L 32.771484,7.90625 c 0.249859,-0.2497613 0.249859,-0.6623481 0,-0.9121094 -0.24976,-0.2498246 -0.662349,-0.2498246 -0.912109,0 z m 0.353516,0.3535156 c 0.05864,-0.058655 0.146438,-0.058655 0.205078,0 0.05874,0.058718 0.05874,0.1463597 0,0.2050782 L 15.828125,24.142578 c -0.05866,0.0587 -0.144467,0.0587 -0.203125,0 a 0.250025,0.250025 0 0 0 -0.002,0 c -0.0587,-0.05866 -0.0587,-0.14642 0,-0.205078 z"
       id="path1958" />
  </g>
  <g
     id="path1781"
     style="fill:#000000">
    <path
       style="color:#000000;clip-rule:evenodd;fill:#000000;fill-rule:evenodd;stroke-width:0.5;stroke-linecap:round;stroke-linejoin:round;-inkscape-stroke:none"
       d="m 32.3306,1.24733 c 0.1543,0.15424 0.1543,0.40432 0,0.55856 L 9.68638,24.4501 c -0.15424,0.1543 -0.40431,0.1543 -0.55855,0 -0.15424,-0.1542 -0.15424,-0.4043 0,-0.5585 L 31.7721,1.24733 c 0.1542,-0.15424 0.4043,-0.15424 0.5585,0 z"
       id="path1962" />
    <path
       style="color:#000000;clip-rule:evenodd;fill:#000000;fill-rule:evenodd;stroke-linecap:round;stroke-linejoin:round;-inkscape-stroke:none"
       d="M 31.595703,1.0703125 8.9511719,23.714844 c -0.2498247,0.24976 -0.2498247,0.662349 0,0.912109 0.2497574,0.249855 0.6623519,0.249855 0.9121094,0 L 32.507812,1.9824219 c 0.249859,-0.2497613 0.249859,-0.6623481 0,-0.9121094 -0.249759,-0.24982467 -0.662349,-0.24982467 -0.912109,0 z m 0.353516,0.3535156 c 0.05864,-0.058655 0.146438,-0.058655 0.205078,0 0.05874,0.058719 0.05874,0.1463597 0,0.2050781 L 9.5097656,24.273437 c -0.058722,0.05875 -0.1463559,0.05875 -0.2050781,0 -0.058655,-0.05864 -0.058655,-0.146438 0,-0.205078 z"
       id="path1964" />
  </g>
</svg>
